<?xml version="1.0" encoding="iso-8859-1"?>
<!-- Uploaded to: SVG Repo, www.svgrepo.com, Generator: SVG Repo Mixer Tools -->
<svg version="1.1" id="Layer_1" xmlns="http://www.w3.org/2000/svg" xmlns:xlink="http://www.w3.org/1999/xlink" 
	 viewBox="0 0 390.206 390.206" xml:space="preserve">
<path style="fill:#FFFFFF;" d="M357.689,157.156H32.517c-5.947,0-10.861,4.848-10.861,10.861v189.673
	c0,5.947,4.848,10.861,10.861,10.861h325.172c5.947,0,10.861-4.849,10.861-10.861V168.016
	C368.549,162.069,363.636,157.156,357.689,157.156z"/>
<path style="fill:#194F82;" d="M357.689,135.499H341.98L226.004,85.075c2.198-4.848,3.232-10.279,3.232-16.291
	c0-18.424-12.477-34.133-29.285-39.046V10.861C199.952,4.913,195.103,0,189.091,0s-10.796,4.848-10.796,10.861v28.703
	c0,5.947,4.848,10.861,10.861,10.861c10.279,0,18.424,8.145,18.424,18.941c0,2.715-0.517,5.43-1.616,7.564l-6.529-2.715
	c-2.715-1.099-5.947-1.099-8.663,0l-16.291,7.046c-2.198-3.814-3.814-8.145-3.814-12.477c0-5.947-4.848-10.861-10.861-10.861
	c-6.012,0-10.861,4.848-10.861,10.861c0,7.564,2.198,14.093,5.43,20.04L48.226,135.499H32.517C14.61,135.499,0,150.109,0,168.016
	v189.673c0,17.907,14.61,32.517,32.517,32.517h325.172c17.907,0,32.517-14.61,32.517-32.517V168.016
	C390.206,150.109,375.596,135.499,357.689,135.499z M368.549,357.689c0,5.947-4.849,10.861-10.861,10.861H32.517
	c-5.947,0-10.861-4.849-10.861-10.861V168.016c0-5.947,4.848-10.861,10.861-10.861h325.172c5.947,0,10.861,4.848,10.861,10.861
	V357.689z M171.83,105.115c5.43,2.715,10.861,3.814,17.325,3.814c8.145,0,16.291-2.715,22.238-7.046l75.895,33.034H102.4
	L171.83,105.115z"/>
<rect x="43.378" y="178.812" style="fill:#FFC10D;" width="303.515" height="168.016"/>
<g>
	<path style="fill:#194F82;" d="M80.743,194.586c-5.947,0-10.861,4.848-10.861,10.861v115.459c0,5.947,4.848,10.861,10.861,10.861
		s10.861-4.848,10.861-10.861V205.382C91.604,199.434,86.691,194.586,80.743,194.586z"/>
	<path style="fill:#194F82;" d="M137.632,194.586c-5.947,0-10.861,4.848-10.861,10.861v115.459c0,5.947,4.848,10.861,10.861,10.861
		c5.947,0,10.861-4.848,10.861-10.861V205.382C148.493,199.434,143.644,194.586,137.632,194.586z"/>
	<path style="fill:#194F82;" d="M195.103,194.586c-5.947,0-10.861,4.848-10.861,10.861v115.459c0,5.947,4.848,10.861,10.861,10.861
		c5.947,0,10.861-4.848,10.861-10.861V205.382C205.964,199.434,201.051,194.586,195.103,194.586z"/>
	<path style="fill:#194F82;" d="M252.574,194.586c-5.947,0-10.861,4.848-10.861,10.861v115.459c0,5.947,4.848,10.861,10.861,10.861
		c5.947,0,10.861-4.848,10.861-10.861V205.382C263.37,199.434,258.521,194.586,252.574,194.586z"/>
	<path style="fill:#194F82;" d="M309.463,194.586c-5.947,0-10.861,4.848-10.861,10.861v115.459c0,5.947,4.848,10.861,10.861,10.861
		c5.947,0,10.861-4.848,10.861-10.861V205.382C320.323,199.434,315.41,194.586,309.463,194.586z"/>
</g>
</svg>